<svg xmlns="http://www.w3.org/2000/svg" height="48" width="48" viewBox="0 0 48 48"><title>juice</title><g class="nc-icon-wrapper"><path d="M32,47A13,13,0,1,1,45,34,13.015,13.015,0,0,1,32,47Z" fill="#ea9860"></path> <path d="M19.182,47H8.818a4.006,4.006,0,0,1-3.992-3.75L3,14.062A1,1,0,0,1,4,13H24a1,1,0,0,1,1,1.062L23.174,43.25A4.006,4.006,0,0,1,19.182,47Z" fill="#badefc"></path> <path d="M30,17a1,1,0,0,1-1-1V13a8.009,8.009,0,0,1,8-8,1,1,0,0,1,1,1V9A8.009,8.009,0,0,1,30,17Z" fill="#72c472"></path> <circle cx="35" cy="40" r="1" fill="#d37d42"></circle> <circle cx="38" cy="36" r="1" fill="#d37d42"></circle> <circle cx="35" cy="33" r="1" fill="#d37d42"></circle> <path d="M6,30l.82,13.126a2,2,0,0,0,2,1.874H19.182a2,2,0,0,0,2-1.875L22,30Z" fill="#ea9860"></path> <path d="M14,41a1,1,0,0,1-.993-.9L9.1,3H2A1,1,0,0,1,2,1h8a1,1,0,0,1,.994.9l4,38a1,1,0,0,1-.89,1.1A.924.924,0,0,1,14,41Z" fill="#335262"></path></g></svg>